<?xml version="1.0" encoding="utf-8"?>
<!-- Generator: Adobe Illustrator 21.1.0, SVG Export Plug-In . SVG Version: 6.00 Build 0)  -->
<svg version="1.1" id="logo" xmlns="http://www.w3.org/2000/svg" xmlns:xlink="http://www.w3.org/1999/xlink" x="0px" y="0px"
	 viewBox="0 0 300 300" style="enable-background:new 0 0 300 300;" xml:space="preserve">
<style type="text/css">
	.st0{fill:#FFFFFF;}
	.st1{fill:#9A9A95;}
	.st2{fill:#E9E8E8;}
	.st3{fill:#293276;}
	.st4{fill:#25489E;}
	.st5{fill:#F3F3F3;}
	.st6{fill:#2F5FAC;}
	.st7{fill:#3288C9;}
	.st8{fill:#C7C7C5;}
	.st9{fill:#4096D2;}
	.st10{fill:#F5F6F6;}
	.st11{fill:#3671B8;}
</style>
<g id="chiefs">
	<path id="bg" class="st0" d="M74.7,190.5l-21.7,13c14.5,32.4,37.4,65,73.2,90.5l-17.6-103.5H74.7z M189.4,181.5h22.4L150,142.8
		l-9,5.6l-38.5,24.1l-14.4,9h25.1H126l2,10L150,300l18.6-91.5l5.5-27H189.4z M225.3,190.5h-33.9l-3.8,22.1L173.8,294
		c32.3-23,54.1-51.7,68.7-80.8c1.6-3.2,3.1-6.5,4.6-9.7l0,0L225.3,190.5z M150,74.1l-37.6,21.7L65.6,123l-31.9,18.5
		c2.8,14.7,7,30.8,13.1,47.2l45.5-26.5l40.8-23.7l16.9-9.8l103.2,60.1c6.2-16.4,10.3-32.5,13.1-47.2l0,0L150,74.1z M271.3,69.9
		L150,0.1L150,0.2V0.1l-47.6,27.4L44.2,61l-15.4,8.9c0,0-2.2,24.8,2.9,59.4l29.1-16.7l48.6-27.8L150,61.5l118.4,67.8
		C273.5,94.7,271.3,69.9,271.3,69.9z"/>
	<path class="st1" d="M74.7,190.5l-21.7,13c14.5,32.4,37.4,65,73.2,90.5l-17.6-103.5H74.7z"/>
	<path class="st2" d="M44.2,61l-15.4,8.9c0,0-2.2,24.8,2.9,59.4l29.1-16.7C54.1,97.7,48.4,80.6,44.2,61z"/>
	<path class="st3" d="M150,300l18.6-91.5c-13.2-3.6-27-9-40.5-17L150,300z"/>
	<path class="st3" d="M88.1,181.5h25.1c-3.6-2.8-7.2-5.8-10.7-9L88.1,181.5z"/>
	<path class="st4" d="M65.6,123l-31.9,18.5c2.8,14.7,7,30.8,13.1,47.2l45.5-26.5C82.6,151.4,73.5,138.5,65.6,123z"/>
	<path class="st1" d="M187.7,212.6L173.8,294c32.3-23,54.1-51.7,68.7-80.8C232.8,214.6,212.3,216.4,187.7,212.6z"/>
	<path class="st5" d="M109.3,84.8c-5.8-22.9-6.9-44.2-6.9-57.3L44.2,61c4.3,19.5,9.9,36.6,16.6,51.6L109.3,84.8z"/>
	<path class="st6" d="M141,148.4l-38.5,24.1c3.5,3.2,7.1,6.2,10.7,9H126l2,10c13.5,8,27.3,13.5,40.5,17l5.5-27h15.4
		C168.8,173.9,153.1,162.2,141,148.4z"/>
	<path class="st7" d="M112.4,95.9L65.6,123c7.9,15.5,16.9,28.4,26.7,39.2l40.8-23.7C123.6,125.1,117,110.4,112.4,95.9z"/>
	<path class="st8" d="M225.3,190.5h-33.9l-3.8,22.1c24.6,3.8,45.2,2,54.8,0.7c1.6-3.2,3.1-6.5,4.6-9.7l0,0L225.3,190.5z"/>
	<path class="st9" d="M150,74.1l-37.6,21.7c4.6,14.5,11.2,29.2,20.7,42.5l16.9-9.8l103.2,60.1c6.2-16.4,10.3-32.5,13.1-47.2l0,0
		L150,74.1z"/>
	<path class="st10" d="M150,61.5l118.4,67.8c5.2-34.6,2.9-59.4,2.9-59.4L150,0.1L150,0.2V0.1l-47.6,27.4c0,13.1,1.1,34.4,6.9,57.3
		L150,61.5z"/>
	<path class="st11" d="M150,142.8l-9,5.6c12.1,13.8,27.8,25.5,48.4,33.1h22.4L150,142.8z"/>
</g>
</svg>
